<svg fill="none" height="45" viewBox="0 0 45 45" width="45" xmlns="http://www.w3.org/2000/svg">
    <rect fill="black" fill-opacity="0.85" height="44" rx="22" width="44" x="0.5" y="0.5" />
    <path
        d="M19.4999 28.25C19.0899 28.25 18.7499 27.91 18.7499 27.5V23.31L18.0299 24.03C17.7399 24.32 17.2599 24.32 16.9699 24.03C16.6799 23.74 16.6799 23.26 16.9699 22.97L18.9699 20.97C19.1799 20.76 19.5099 20.69 19.7899 20.81C20.0699 20.92 20.2499 21.2 20.2499 21.5V27.5C20.2499 27.91 19.9099 28.25 19.4999 28.25Z"
        fill="white" />
    <path
        d="M21.4999 24.2499C21.3099 24.2499 21.1199 24.1799 20.9699 24.0299L18.9699 22.0299C18.6799 21.7399 18.6799 21.2599 18.9699 20.9699C19.2599 20.6799 19.7399 20.6799 20.0299 20.9699L22.0299 22.9699C22.3199 23.2599 22.3199 23.7399 22.0299 24.0299C21.8799 24.1799 21.6899 24.2499 21.4999 24.2499Z"
        fill="white" />
    <path
        d="M25.5 33.25H19.5C14.07 33.25 11.75 30.93 11.75 25.5V19.5C11.75 14.07 14.07 11.75 19.5 11.75H24.5C24.91 11.75 25.25 12.09 25.25 12.5C25.25 12.91 24.91 13.25 24.5 13.25H19.5C14.89 13.25 13.25 14.89 13.25 19.5V25.5C13.25 30.11 14.89 31.75 19.5 31.75H25.5C30.11 31.75 31.75 30.11 31.75 25.5V20.5C31.75 20.09 32.09 19.75 32.5 19.75C32.91 19.75 33.25 20.09 33.25 20.5V25.5C33.25 30.93 30.93 33.25 25.5 33.25Z"
        fill="white" />
    <path
        d="M32.5 21.25H28.5C25.08 21.25 23.75 19.92 23.75 16.5V12.5C23.75 12.2 23.93 11.92 24.21 11.81C24.49 11.69 24.81 11.76 25.03 11.97L33.03 19.97C33.24 20.18 33.31 20.51 33.19 20.79C33.07 21.07 32.8 21.25 32.5 21.25ZM25.25 14.31V16.5C25.25 19.08 25.92 19.75 28.5 19.75H30.69L25.25 14.31Z"
        fill="white" />
</svg>
