<?xml version="1.0" standalone="no"?>
<!DOCTYPE svg PUBLIC "-//W3C//DTD SVG 20010904//EN"
 "http://www.w3.org/TR/2001/REC-SVG-20010904/DTD/svg10.dtd">
<svg version="1.0" xmlns="http://www.w3.org/2000/svg"
 width="24.000000pt" height="24.000000pt" viewBox="0 0 24.000000 24.000000"
 preserveAspectRatio="xMidYMid meet">

<g transform="translate(0.000000,24.000000) scale(0.100000,-0.100000)"
fill="#000000" stroke="none">
<path d="M23 200 c-38 -35 -30 -68 33 -127 31 -29 60 -53 64 -53 4 0 33 24 64
53 63 59 71 92 34 127 -17 16 -31 20 -53 15 -38 -7 -52 -7 -90 0 -22 5 -36 1
-52 -15z m75 -15 c19 -14 24 -14 46 0 49 32 94 -12 62 -60 -9 -13 -31 -36 -50
-50 l-35 -27 -30 21 c-36 26 -71 69 -71 87 0 16 28 44 43 44 7 0 22 -7 35 -15z"/>
</g>
</svg>
