<svg width="22" height="22" viewBox="0 0 22 22" fill="none" xmlns="http://www.w3.org/2000/svg">
<g clip-path="url(#clip0_155_907)">
<path d="M21.9896 11.2058C21.9896 10.3045 21.9148 9.64674 21.7528 8.96466H11.2192V13.0328H17.4022C17.2776 14.0438 16.6044 15.5663 15.1085 16.5894L15.0875 16.7256L18.418 19.2466L18.6488 19.2691C20.7679 17.3568 21.9896 14.5432 21.9896 11.2058Z" fill="#4285F4"/>
<path d="M11.2192 21.9244C14.2484 21.9244 16.7913 20.95 18.6488 19.2691L15.1085 16.5894C14.1611 17.235 12.8896 17.6857 11.2192 17.6857C8.25242 17.6857 5.73436 15.7734 4.83675 13.1303L4.70518 13.1412L1.24207 15.76L1.19678 15.883C3.04168 19.464 6.83127 21.9244 11.2192 21.9244Z" fill="#34A853"/>
<path d="M4.83665 13.1303C4.5998 12.4482 4.46273 11.7174 4.46273 10.9622C4.46273 10.207 4.5998 9.47621 4.82419 8.79413L4.81791 8.64886L1.31141 5.98804L1.19668 6.04136C0.436305 7.52737 0 9.19609 0 10.9622C0 12.7284 0.436305 14.397 1.19668 15.883L4.83665 13.1303Z" fill="#FBBC05"/>
<path d="M11.2192 4.23869C13.3259 4.23869 14.747 5.12785 15.5573 5.87089L18.7236 2.85018C16.779 1.08405 14.2484 0 11.2192 0C6.83127 0 3.04168 2.46039 1.19678 6.04135L4.82429 8.79412C5.73436 6.15102 8.25242 4.23869 11.2192 4.23869Z" fill="#EB4335"/>
</g>
<defs>
<clipPath id="clip0_155_907">
<rect width="22" height="22" fill="white"/>
</clipPath>
</defs>
</svg>
