<svg fill="none" height="141" viewBox="0 0 319 141" width="319" xmlns="http://www.w3.org/2000/svg">
    <g clip-path="url(#clip0_706_1082)">
        <g opacity="0.5">
            <path
                d="M90.0711 24.1604C141.948 -8.39494 192.794 -46.8711 241.568 -90.3539L311.16 -52.6899C118.331 96.5688 -91.3527 189.373 -287.333 211.604L-250.742 143.994C-189.323 135.471 -127.388 123.984 -64.5243 101.187C-12.7684 82.4186 39.1682 56.1044 90.0711 24.1604Z"
                fill="#006EBE" />
            <path
                d="M26.4652 -4.93949C81.7572 -35.2338 136.121 -73.9448 187.703 -119.506L241.568 -90.354C192.794 -46.8716 141.948 -8.39505 90.0709 24.1604C39.168 56.1043 -12.7686 82.4185 -64.5247 101.188C-127.388 123.984 -189.323 135.471 -250.743 143.994L-211.666 71.7918C-134.373 64.7302 -53.0484 38.6253 26.4652 -4.93949Z"
                fill="#3B90CE" />
            <path
                d="M364.184 -91.3636L388.406 -78.2545L349.563 -25.4801C262.396 50.7884 176.829 108.184 82.6309 146.09C-33.4588 192.805 -148.326 212.731 -259.924 220.26L-234.309 172.93C-38.3283 150.699 171.355 57.8952 364.184 -91.3636Z"
                fill="#006EBE" fill-opacity="0.8" />
            <path
                d="M26.4653 -4.93933C-53.0483 38.6255 -134.373 64.7304 -211.666 71.792L-173.379 1.04863C-118.454 2.50254 -59.1899 -11.4609 -0.720474 -39.8929C49.5431 -64.3347 99.1378 -99.4297 144.916 -142.663L187.703 -119.506C136.121 -73.9446 81.7573 -35.2336 26.4653 -4.93933Z"
                fill="#639DC8" fill-opacity="0.85" />
            <path
                d="M-0.720197 -39.8935C-59.1896 -11.4615 -118.454 2.502 -173.379 1.04809L-148.874 -44.2297C-112.611 -45.3795 -73.8522 -56.546 -35.6642 -73.5868C12.3711 -95.022 60.0899 -125.912 104.979 -164.278L144.916 -142.663C99.1383 -99.4306 49.5436 -64.3356 -0.720197 -39.8935Z"
                fill="#18A6DF" />
            <path
                d="M-35.6649 -73.586C-73.853 -56.5451 -112.611 -45.3786 -148.874 -44.2287L-122.553 -92.8629C-84.8698 -98.0218 -45.3474 -113.172 -7.3623 -137.246C15.3951 -151.669 37.5718 -169.276 58.5149 -189.423L104.978 -164.277C60.0896 -125.911 12.3702 -95.0208 -35.6649 -73.586Z"
                fill="#018BC7" />
        </g>
    </g>
    <defs>
        <clipPath id="clip0_706_1082">
            <rect fill="white" height="141" width="319" />
        </clipPath>
    </defs>
</svg>
