<svg fill="none" height="86" viewBox="0 0 49 86" width="49" xmlns="http://www.w3.org/2000/svg">
    <path
        d="M10.5247 41.8545V15.7783L5.06652 13.0935V41.8545C5.06652 52.6799 13.783 61.4845 24.4976 61.4845C26.5292 61.4845 28.5321 61.1652 30.4424 60.5438V65.8637C28.5092 66.3516 26.5136 66.6041 24.4976 66.6041C10.9885 66.6041 0 55.5031 0 41.8545V4.9068L15.5912 12.5728V41.8545C15.5912 46.8163 19.5873 50.852 24.4976 50.852C26.7779 50.852 28.8637 49.9818 30.4424 48.5532V54.6329C28.6378 55.491 26.623 55.9716 24.4976 55.9716C16.7915 55.9716 10.5247 49.6395 10.5247 41.8545Z"
        fill="#006EBE" />
    <path
        d="M49 41.8545V78.5L33.4087 73.1643V41.8545C33.4087 36.8891 29.4127 32.8533 24.4976 32.8533C22.1908 32.8533 20.0894 33.743 18.5035 35.1995V29.1004C20.3189 28.2265 22.3542 27.7338 24.4976 27.7338C32.2037 27.7338 38.4753 34.0659 38.4753 41.8545V69.494L43.9335 71.3607V41.8545C43.9335 31.0254 35.2133 22.2209 24.4976 22.2209C22.4515 22.2209 20.4283 22.5474 18.5035 23.1822V17.8538C20.4523 17.3574 22.4635 17.1013 24.4976 17.1013C38.0079 17.1013 49 28.2059 49 41.8545Z"
        fill="#006EBE" />
    <path
        d="M33.4088 59.2948V64.906C32.4416 65.2883 31.4516 65.6112 30.4424 65.8636V60.5438C31.46 60.2124 32.4536 59.7949 33.4088 59.2948Z"
        fill="#006EBE" />
    <path
        d="M18.5036 17.8575V23.1822C17.5052 23.5087 16.5308 23.9177 15.5912 24.4105V18.7994C16.5428 18.4207 17.5136 18.1063 18.5036 17.8575Z"
        fill="#006EBE" />
    <path
        d="M18.5036 29.1004V35.1995C16.7134 36.8502 15.5912 39.2207 15.5912 41.8545V30.983C16.4803 30.2377 17.4547 29.6041 18.5036 29.1004Z"
        fill="#006EBE" />
    <path
        d="M33.4088 41.8546V52.7225C32.5077 53.475 31.5105 54.1207 30.4424 54.6329V48.5532C32.2626 46.9074 33.4088 44.5127 33.4088 41.8546Z"
        fill="#006EBE" />
</svg>
